# xmcd CD database file
#
# Track frame offsets:
#	150
#	46490
#	105478
#	144293
#
# Disc length: 2772 seconds
#
# Revision: 1
# Processed by: cddbd v1.4PL0 Copyright (c) Steve Scherf et al.
# Submitted via: CDex 1.50Beta3
#
DISCID=2c0ad204
DTITLE=Tania Maria's Nouvelle Vague - Alive and Cooking (live)
DYEAR=1994
DGENRE=Jazz
TTITLE0=Dear D.V.
TTITLE1=É Carnaval
TTITLE2=I Can Do It
TTITLE3=Bom, Bom, Bom
EXTD=YEAR: 1994
EXTT0=
EXTT1=
EXTT2=
EXTT3=
PLAYORDER=
